<svg id="Layer_1" data-name="Layer 1" xmlns="http://www.w3.org/2000/svg" viewBox="0 0 448.09 575.29"><defs><style>.cls-1{fill:#fff;stroke:#000;stroke-miterlimit:10;}</style></defs><g id="Shape"><path class="cls-1" d="M169.24,403.05a20.83,20.83,0,0,1-9.88.79,31.84,31.84,0,0,1-11.11-3.62,26.8,26.8,0,0,1-8.8-7.7c-1.4-1.79-3.21-3.37-4.17-5.37a100.88,100.88,0,0,1-5-12.47,34,34,0,0,1-1.74-9.35c-.12-3.71.85-7.45,1.11-11.12.34-4.65,2.25-8.61,3.89-12.64s4.5-7.82,6.6-11.81c1.38-2.63,3.55-4.41,5.65-6.32a3.64,3.64,0,0,0,.56-.86,6.05,6.05,0,0,0-1.09-.36c-1.82-.32-3.65-.6-5.48-.9-.2,0-.45-.17-.6-.09-3.1,1.62-6.45.84-9.7,1-4.91.18-9.83.23-14.74.38a36,36,0,0,0-4.64.39c-.72.11-1.33.84-2,1-3.47.66-6.94,1.38-10.44,1.74a11.23,11.23,0,0,1-4.36-.94,2.09,2.09,0,0,0-2.45.6,71.76,71.76,0,0,1-5.77,4.28c-5.22,3.8-10.54,7.47-15.62,11.45-4,3.12-7.65,6.67-11.49,10-4.78,4.12-9.48,8.35-14.44,12.24-4.18,3.28-8.63,6.21-13,9.16-1.21.81-2.78,1.07-4.06,1.78A2.3,2.3,0,0,0,25.35,376a35,35,0,0,0,1.12,5.73c1.43,4.95,2.89,9.9,4.51,14.79,3.53,10.71,7.16,21.38,10.77,32.06a7.55,7.55,0,0,0,.92,1.92A20.77,20.77,0,0,1,46,438c.59,2.68,2.32,5.09,3,7.77,1.23,4.76,3,9.47,2.57,14.55-.07.85.16,1.83-1,1.94s-2.49.25-3-1.06c-1.18-2.82-2.59-5.63-3.2-8.58-.84-4.16-2.73-7.73-4.69-11.38-2.21-4.14-4.15-8.44-6.13-12.7-1.5-3.22-3-6.45-4.28-9.75-1.42-3.61-2.68-7.29-3.87-11-1.61-5-3-10.09-4.66-15.09-.78-2.37-1.95-4.62-2.9-6.95-.63-1.51-1.24-3-1.74-4.6-.22-.71.06-1.61-.23-2.27-.87-1.94-2-3.76-2.86-5.73a11,11,0,0,1-1-4.32,4.22,4.22,0,0,1,1.6-2.94c5.4-3.73,11-7.17,16.37-10.93,3-2.1,5.54-4.79,8.49-6.95,5.37-3.92,11-7.53,16.32-11.48,2.9-2.14,5.5-4.68,8.21-7.09a101.65,101.65,0,0,1,14.37-11.11c2.49-1.53,4.9-3.33,7.61-4.29a41.19,41.19,0,0,0,5-2.06,7.23,7.23,0,0,1,3-.72,18,18,0,0,0,5.84-.9c1.61-.59,3.5-.45,5.27-.54,3.14-.16,6.36.12,9.42-.44,9-1.64,18-.79,27.05-1,4.32-.08,8.65.15,13,.35,2.21.1,4.42.43,6.62.69,3.77.44,7.27-.93,10.87-1.57,3.15-.56,6.28-1.18,9.44-1.61,6.33-.85,12.3.88,18.28,2.61.72.21,1.63-.26,2.45-.42-.33-.73-.46-1.85-1-2.15-4.1-2.18-8.25-4.3-12.47-6.25-3.32-1.53-6.72-2.91-10.16-4.14-5.57-2-11.25-3.64-16.8-5.67-3.34-1.21-6.85-2.11-9.59-4.72-1.88-1.79-4.61-1.1-6.93-1.62a15.41,15.41,0,0,1-2.54-.72c-2-.9-4.07-1.88-6.1-2.82-.34-.17-.9-.27-1-.53-.44-1.29-1.5-1.08-2.49-1.27-3.93-.78-8.1-.27-11.76-2.43-2-1.18-2.32-1.52-1.74-3.65a9.45,9.45,0,0,1,1.09-3.25c1.81-2.41,4.53-3.28,7.16-1.93a63.81,63.81,0,0,0,14.64,4.89c2.44.57,4.95.85,7.37,1.47a13.28,13.28,0,0,1,3.88,1.74,4,4,0,0,0,3.54.83c2.47-.64,4.74.44,6.94,1.43,3.53,1.6,7,3.34,10.57,4.86,5,2.13,9.94,4.27,15,6.13a78.09,78.09,0,0,1,13.77,7c.83.5,1.4,1.44,2.24,1.91.58.33,1.71.56,2.09.24,2.83-2.4,5.44-5.05,8.31-7.39,1-.81.56-1.15,0-1.49a6.05,6.05,0,0,1-3.1-5.48,10,10,0,0,0-1.54-4.46c-3.34-5.72-6.88-11.33-10.23-17.05-4.37-7.46-8.84-14.87-12.85-22.51-2.73-5.21-4.77-10.79-7.08-16.21a2.2,2.2,0,0,1-.09-1.53c.82-1.94-.23-3.55-.72-5.28a19.61,19.61,0,0,1-1-4.7c-.13-4.58-.25-9.19,1.4-13.58a26.62,26.62,0,0,1,1.68-2.64,5.58,5.58,0,0,0,.73-2.31c.09-2.86.08-5.72,0-8.57,0-1.91-.32-3.81-.31-5.71a74.93,74.93,0,0,1,.37-8.35c.41-3.39,1.35-6.71,1.68-10.1a22.47,22.47,0,0,1,4.78-11.49c2.53-3.38,5.22-6.65,8-9.8,4.81-5.44,9.6-10.91,14.71-16,3.16-3.18,7-5.71,10.34-8.7a11.1,11.1,0,0,0,2.82-4c1-2.43,1.44-5.07,2.34-7.54,3.2-8.84,6.54-17.62,9.72-26.46a54.3,54.3,0,0,0,1.66-6.59,20.24,20.24,0,0,1,4.79-8.79,53.47,53.47,0,0,1,9.28-8.45c5.44-4,10.86-8,16.4-11.76,6.05-4.17,12.28-8.06,18.32-12.25,4.53-3.14,8.86-6.56,13.31-9.83a14.71,14.71,0,0,1,2.31-1.26c5.47-2.64,10.9-5.34,16.43-7.85a11,11,0,0,1,4.59-.78c.58,0,1.18,1.11,1.66,1.79a1.18,1.18,0,0,1-.69,1.37c-4.17,2.08-8.23,4.4-12.3,6.68a25.59,25.59,0,0,0-3.63,2.35c-1.26,1-2.23,2.42-3.57,3.27-4.29,2.71-8.74,5.17-13,7.88-1.35.85-2.33,2.29-3.62,3.26s-3,1.69-4.34,2.69c-3.1,2.28-6.13,4.65-9.16,7-3.27,2.54-6.56,5.05-9.77,7.66-2.1,1.71-4,3.64-6.12,5.36-1.92,1.57-4,3-5.93,4.49a21.83,21.83,0,0,0-2.79,2.56,1.52,1.52,0,0,0-.12,1.48c1.12,1.35.43,2.53,0,3.89-1.05,3.29-1.74,6.71-2.91,10-2.9,8.12-6,16.18-9,24.28-1.5,4.05-2.92,8.13-4.46,12.16-1.71,4.49-3.63,8.9-5.27,13.41s-3.24,9.2-4.6,13.87c-1.27,4.38-2,9-4.7,12.76-1,1.44-1.87,2.73-1,4.43a20.16,20.16,0,0,0,1.74,2.12,12.07,12.07,0,0,1,2.05,7.8c-.27,5.84,1,11.35,2.48,16.91.91,3.55,1.36,7.22,2.25,10.78a107.15,107.15,0,0,1,2.86,13.54c.31,2.73,1.23,5.39,1.8,8.1.73,3.43,1.33,6.89,2.05,10.32.43,2,1.05,3.95,1.46,5.95.63,3.06,1.2,6.14,1.71,9.22.53,3.28.52,6.72,1.54,9.83,1.21,3.7.95,7.49,1.62,11.19a11.44,11.44,0,0,1-.31,2.68,5.48,5.48,0,0,0,.11,2.5c.53,1.13,1.48,1.48,2.43.27s2.07-2.14,3.63-1.16a5.27,5.27,0,0,1,2.36,3.75,20,20,0,0,0,1,3.56,1.26,1.26,0,0,0,1.12.57c1.54-.55,3-1.22,4.53-1.88,1.16-.52,4,.34,4.55,1.49a34.83,34.83,0,0,1,2.79,6.45c.41,1.69-.15,3.62-.26,5.44,0,.5,0,1,0,1.51.51-.31,1.27-.51,1.48-1,.95-2.09,1.69-4.26,2.6-6.37,1.51-3.45,3.13-6.85,4.62-10.32,2-4.71,3.89-9.5,6-14.19,1.78-4.05,3.73-8,5.65-12a133,133,0,0,1,9.94-16.62c4.29-6.3,8.77-12.48,14.49-17.53a23.17,23.17,0,0,1,9.08-5.41,8.69,8.69,0,0,0,3.45-2.34c6.6-6.51,13.12-13.11,19.71-19.64,2.57-2.56,5.19-5.09,7.88-7.52,3.92-3.55,8.07-6.85,11.85-10.54A100.58,100.58,0,0,1,371.25,158a6.7,6.7,0,0,1,3.66-1.32,9.3,9.3,0,0,0,4.72-1.46c4.06-2.14,8.23-4.08,12.38-6.07,3-1.44,6-3,9.06-4.23,5.7-2.34,11.46-4.56,17.23-6.75,4.24-1.61,8.49-3.21,12.81-4.59,4.56-1.45,9.2-2.63,13.8-3.94,3.7-1,7.37-2.22,11.1-3.12a2.34,2.34,0,0,1,2.87,1.33c.19.56.29,1.19-.86,1.57-2.95,1-5.69,2.56-8.64,3.5-3.77,1.19-7.62,2.09-11.1,4.05a1.38,1.38,0,0,1-.83.11c-3.62-.57-6.63,1.24-9.79,2.5-5.32,2.11-10.68,4.16-16,6.41-2.82,1.2-5.46,2.8-8.22,4.14-3.54,1.72-7.22,3.17-10.65,5.09a104.19,104.19,0,0,0-8.87,6c-1.3.92-2.51,2-3.72,3-.59.5-1.34,1-1.6,1.64-.86,2.2-2.87,3-4.59,4.25a33.63,33.63,0,0,0-3.23,2.47q-4.47,4-8.86,8.14c-4.13,3.86-8,8-12.39,11.54-5.14,4.14-9.9,8.7-14.92,13-3.48,3-6.86,6.06-10.14,9.23-1.49,1.43-2.59,3.27-4,4.82s-3,2.7-4.18,4.28c-1.82,2.43-4.35,3.8-6.71,5.49-1.41,1-2.22,2.86-3.23,4.39-1.21,1.85-2.43,3.7-3.5,5.64-1.5,2.74-2.76,5.6-4.29,8.32-3.92,7-6.75,14.45-9.67,21.88-1.71,4.37-3.55,8.7-5.61,12.92-1.25,2.57-3.35,4.74-4.48,7.34a21.76,21.76,0,0,1-6.48,9c-3.4,2.57-3.93,6.58-6,9.79a18.32,18.32,0,0,0-1.65,3.39,4.37,4.37,0,0,0,0,1.65,5.59,5.59,0,0,0,1.2-.45c4.56-2.86,9.71-4.28,14.78-5.83,4.27-1.31,8.69-2.1,13-3.29,2.95-.82,5.82-1.93,8.73-2.89a4.24,4.24,0,0,1,1.31-.26,115.86,115.86,0,0,0,18.64-2c5.49-1,11-2.35,16.65-2.32,3.74,0,7.55-1,11.21-.53a146.52,146.52,0,0,0,16.21.56c2.78,0,5.57-.32,8.36-.31,4.44,0,8.89.11,13.32.38,2.29.13,4.53.79,6.81,1.05,1.37.16,2.78,0,4.17,0,3.14.09,6.29.12,9.41.41.64.06,1.79,1.41,1.66,1.7a6,6,0,0,1-2,2.09,3,3,0,0,1-1.6.37c-3.44.15-6.93.69-10.3.29-9.18-1.1-18.37-.36-27.55-.63-6.29-.19-12.43.15-18.33,2.85-2.22,1-5,.73-7.37,1.46-4,1.23-8.16.68-12.2,1.35a13.1,13.1,0,0,1-3.13.14c-3.29-.26-6.09,1.88-9.43,1.75a14.64,14.64,0,0,0-6,1.23,78,78,0,0,1-9,2.56c-.11,0-.29,0-.34,0-2.05,2.35-5.25,1.52-7.73,2.77a68.74,68.74,0,0,1-7.45,3c-1.34.49-2.72.87-4.1,1.24-.25.07-.58-.24-.87-.23a5.68,5.68,0,0,0-2.25.25c-2.77,1.47-5.33,3.51-8.25,4.48-3.22,1.08-6.43,2.53-10,2.46-.92,0-1.93,1.25-2.79,2.05a9.75,9.75,0,0,1-9.32,1.71,19.92,19.92,0,0,0-4.86-.66,1,1,0,0,0-.81.5c-.07.2.19.63.41.82,1.09.91,2.18,1.83,3.34,2.64a3.86,3.86,0,0,1,1.83,3.29c-.06,4.56.06,9.15-.42,13.67-.4,3.85-1.55,7.61-2.3,11.43a11.07,11.07,0,0,0-.36,3.94,6.21,6.21,0,0,0,1.77,2.57c1.66,1.87,3.52,3.57,5.05,5.53.81,1,1.06,2.5,1.61,3.75a7,7,0,0,0,1.1,2c1.69,1.81,3.56,3.46,5.23,5.3,3.52,3.9,6.95,7.87,10.42,11.81,0,0,.1.08.12.13,1.37,5.13,6.3,6.11,10,8.43,4,2.51,8.19,4.76,12.29,7.13a5.53,5.53,0,0,1,1.1.76c1.88,1.81,2,2.77.69,4.9-.63,1-1.41.73-2.19.31-3.59-1.91-7.12-3.91-10.75-5.73-2.09-1.06-4.33-1.82-6.49-2.73a12.83,12.83,0,0,1-1.61-.82,41.87,41.87,0,0,0-9.2-3.93,11.18,11.18,0,0,1-5-4c-3.77-4.94-6.91-10.35-11.34-14.8a22,22,0,0,1-2.42-3.76,21.32,21.32,0,0,0-1.64-2.34c-2-2.27-4.21-4.34-6-6.77-2.5-3.49-4.12-7.3-3.22-11.86s1.4-9.22,2.21-13.81a19.27,19.27,0,0,1,1.36-3.33c.44-1.12.73-2.15-.91-2.71-2.06-.7-2.26-3.1-3.69-4.41-.45-.42-1.15-1.22-1.38-1.11-1.21.59-.67,1.5-.23,2.41,1.88,3.88,3.14,7.65,2.15,12.28a84.43,84.43,0,0,1-2.94,11.41c-1.63,4.45-4.06,8.61-6.3,12.81-2.07,3.88-4.3,7.68-6.56,11.46-1.34,2.25-3,4.32-4.3,6.56-1.85,3.1-3.55,6.28-5.3,9.43,0,0,0,.11,0,.12-3.33.56-3.51,3.9-5.2,5.92-2.23,2.67-4.52,5.3-6.62,8.07a81,81,0,0,0-6.7,9.64,91,91,0,0,1-4.62,8.21c-1.2,1.71-1.31,4.15-2,6.25s-1.26,4.08-2,6.06c-.89,2.18-2.11,4.13-2.49,6.63-.5,3.32-1.93,6.5-2.89,9.76-1.9,6.48-3.89,12.94-5.58,19.48-1,3.89-1.32,7.94-2.27,11.84-1.36,5.56-3,11-4.54,16.55-.82,3.05-2.54,5.58-4.16,8.23-.68,1.13-.18,3-.06,4.58.09,1.16.55,2.29.62,3.45.19,3.25.12,6.53.42,9.77.32,3.54.89,7,1.45,10.56.62,3.8,1.49,7.57,2,11.38a79.65,79.65,0,0,1,1,11.08c0,3-.74,5.92-1.18,8.88-.12.82-.33,1.63-.51,2.44a1.14,1.14,0,0,1-1.92.75c-1.18-1-2.17-2.25-2-4s-.79-3.46,1-4.74c.05,0-.23-.46-.28-.71-.38-1.8-1.07-3.62-1-5.4.08-2.22-1.35-3.74-1.85-5.65-1.32-5-2.74-10-3.85-15.06-.48-2.24-.2-4.63-.44-6.93-.29-2.87-.79-5.71-1.13-8.56-.17-1.5-.08-3-.28-4.51-.49-3.62-1.25-7.21-1.56-10.85a58.58,58.58,0,0,1,0-9.46c.37-4.75,3.12-8.74,4.6-13.15,1.86-5.55,3.89-11.05,5.6-16.65,2.23-7.3,4.52-14.61,6.19-22.06.86-3.83,1.19-7.79,2.58-11.53,2.09-5.62,4.14-11.23,7.67-16.16a2.05,2.05,0,0,0,.46-1.54c-1.13-2.91,1.06-4.67,2.4-6.53,6.17-8.59,12.76-16.88,18.68-25.63,5.28-7.82,10-16,14.74-24.2,2.28-3.91,3.8-8.29,6.25-12.09,2-3.09.53-5.62-.23-8.31s-1.87-5.36-2.86-8c-.11-.32-.44-.56-.67-.84-.34.42-.86.79-1,1.27-1,3.19-1.75,6.47-2.89,9.61-2.25,6.22-4.41,12.49-7.17,18.48-1.55,3.35-4.1,6.27-6.43,9.21-2.74,3.46-5.81,6.68-8.6,10.11-3.67,4.5-8.58,7.33-13.48,10.14a89.53,89.53,0,0,1-8.61,3.94m38.65-244.83c0-3-.49-6.17.11-9.08,1-4.78,2.22-9.68,7.27-12.16.2-.1.32-.44.41-.7,1.21-3.58,2.44-7.15,3.58-10.75a5.08,5.08,0,0,0-.12-1.8c-.54.24-1.23.35-1.59.76-3.13,3.52-6.25,7.06-9.28,10.68s-5.86,7.1-8.62,10.78a30.88,30.88,0,0,0-4,6.51c-.73,1.76-.68,3.86-.91,5.82-.62,5.07-1.09,10.16-1.84,15.2a32.67,32.67,0,0,0-.7,5.33c0,3.62-.57,7.27-.17,10.83.26,2.31.81,4.44-.12,6.7a12.32,12.32,0,0,0-.46,6.47,15,15,0,0,1-1.6,8.51,3.74,3.74,0,0,0-.13,3.83c3,5.37,5.86,10.79,8.67,16.26,1.54,3,2.74,6.2,4.31,9.19,2,3.89,4.34,7.66,6.48,11.5,1.54,2.78,3,5.62,4.52,8.4,1.68,3,3.59,5.95,5.08,9.07,1.41,2.94,2.32,6.13,3.67,9.1a3.21,3.21,0,0,0,2.37,1.59c1.19,0,1.91-1,1.81-2.34a4.66,4.66,0,0,0-.36-1.62,10,10,0,0,1-.71-8,4.07,4.07,0,0,0,.34-1.79c-.28-2-.6-4.1-1.05-6.12-1-4.59-2.24-9.14-3.14-13.75-1-5-1.66-10.07-2.53-15.09-.67-3.91-1.34-7.81-2.18-11.68-1.07-4.92-2.4-9.77-3.45-14.69-.75-3.5-1.21-7.07-1.8-10.6s-1.24-7-1.75-10.44c-.26-1.76-.19-3.57-.4-5.34-.42-3.55-2.08-6.83-1.52-10.65.46-3.12-.11-6.39-.23-9.94M149.38,361.74a30,30,0,0,1,.22-5.12c.67-3.12,3.15-4.95,5.72-6.34,3.31-1.8,3.52-5.3,5-8.1.29-.57-.34-1.68-.65-2.5a14.92,14.92,0,0,0-1.44-3.11c-.54-.78-1.37-1.78-2.17-1.87a13,13,0,0,0-9.43,2.82c-2.91,2.16-3.39,5.27-3.56,8.45-.15,2.75-1.11,4.55-3.75,5.72a9.25,9.25,0,0,0-5.47,7.72,106.46,106.46,0,0,0-.71,11.57,22.13,22.13,0,0,0,2.22,9.34c2.19,4.84,5.59,8.86,8.79,13a3.77,3.77,0,0,0,1,.68c0-.56.3-1.26.07-1.67-1.53-2.73-1.06-5.68-1.11-8.58a1.32,1.32,0,0,1,.34-.74c1.56-2,1.37-4.09.23-6.12a2.77,2.77,0,0,1,0-3.4,23,23,0,0,1,1.65-2.32c2.48-2.56,4.44-5.25,3-9.45m68.79-58.15a5.17,5.17,0,0,0-3.12,1.85c-1,1.12-2.48,3.36-2.09,4.63,1.09,3.54,3,3.88,6.37,2.92a4.72,4.72,0,0,0,3.45-5c-.39-2.9-1.4-4-4.61-4.39m70.91-55.31c-1.45,3.11-2.94,6.19-4.31,9.34-.24.55,0,1.34.07,2,.47-.4,1.1-.72,1.38-1.22q3.54-6.39,6.95-12.84a5.77,5.77,0,0,0,.5-2.08,5.22,5.22,0,0,0-.24-1.43c-.5.32-1.2.52-1.47,1-1,1.64-1.81,3.37-2.88,5.24M187,188.36c.23-1.38.59-2.75.68-4.14.12-1.88-.1-3.79.06-5.67.24-2.81.72-5.61,1-8.42.06-.58-.38-1.2-.59-1.81A6.28,6.28,0,0,0,187,170c-.27,1-.2,2.15-.41,3.21a49.92,49.92,0,0,0-1,12.84,4.32,4.32,0,0,0,1.37,2.3m37.58,39c.47,2.75.9,5.52,1.46,8.26.11.55.71,1,1.09,1.49.33-.6,1-1.24.94-1.78-.27-2-.79-4-1.2-6-.65-3.16-1.25-6.32-2-9.46-.1-.44-.76-.74-1.16-1.11-.19.42-.6.88-.54,1.25.4,2.36.91,4.69,1.38,7.39m11.7-134.74c-.29.77-.6,1.53-.87,2.3-.64,1.8-1.31,3.6-1.85,5.43a4.37,4.37,0,0,0,.23,1.67A9.78,9.78,0,0,0,235,100.9a3.77,3.77,0,0,0,.4-1.07c1.5-4,3-8,4.47-12a4.09,4.09,0,0,0-.2-2c0-.08-.73-.18-.81-.06a12.27,12.27,0,0,0-1.24,2.28,42.41,42.41,0,0,0-1.4,4.56M169.06,470.77c-1,3.29-2.15,6.55-3.07,9.86a16.76,16.76,0,0,0-.27,3.83s.33.13.5.13.47,0,.52-.12a13.63,13.63,0,0,0,.72-1.83c1.08-3.73,2.16-7.47,3.16-11.23.12-.46-.24-1.06-.38-1.59-.33.26-.67.52-1.18.95M81,321c-1.91,1.36-3.89,2.63-5.68,4.13-.51.42-.48,1.48-.7,2.25a6.14,6.14,0,0,0,1.83-.46c2.33-1.52,4.62-3.1,6.86-4.76.28-.21.21-1,.12-1.53,0-.13-.77-.2-1.17-.16A3.21,3.21,0,0,0,81,321m214.69-12.59a14,14,0,0,0-3.19.82c-.48.24-.58,1.22-.86,1.87.41.16.89.57,1.2.46,2.59-.85,5.17-1.75,7.71-2.74.53-.21.89-.87,1.32-1.32-.57-.17-1.2-.57-1.72-.47a30,30,0,0,0-4.46,1.38M307,222.57c.95-.95,1.91-1.89,2.85-2.85,1.41-1.46,2.1-3.62,4.29-4.35.24-.07.29-.7.43-1.08a2.57,2.57,0,0,0-.86-.21,4.05,4.05,0,0,0-1.42.39c-2.75,1.45-4.37,4-6,6.45-.21.32.25,1.09.75,1.65M238.74,356.42a8.28,8.28,0,0,0,0,1.41,11.33,11.33,0,0,0,.48,1.57c.31-.44.78-.83.89-1.31.54-2.32,1-4.65,1.42-7,.08-.48-.3-1-.47-1.55a6,6,0,0,0-1.25,1.16,9.62,9.62,0,0,0-1.08,5.72m-60.81-66.48c-1.83-.71-3.64-1.5-5.51-2.08a5.47,5.47,0,0,0-2.12.22c.5.5.91,1.2,1.51,1.47a57.59,57.59,0,0,0,5.66,2.13,10.07,10.07,0,0,0,2.41.19,10.49,10.49,0,0,0-1.95-1.93m58.68.53a2.08,2.08,0,0,0,.43,2.86c.55.41,1.54.85,2,.62a3.15,3.15,0,0,0,1.7-2c0-.66-.85-1.62-1.57-2-.44-.23-1.32.42-2,.63-.08,0-.24-.2-.54-.14m-4.79-2.3c.45-.33,1.09-.58,1.3-1a2.6,2.6,0,0,0,.23-2,2.78,2.78,0,0,0-1.69-1.23c-1-.22-2.6,1.18-2.47,2.08.17,1.25.68,2.32,2.63,2.13m3.37,14c-.63,1-1.5,2.17,0,2.95a3.25,3.25,0,0,0,2.72-.17,2.36,2.36,0,0,0,.49-2.27c-.61-1.19-1.8-1.51-3.23-.51m-92.72-25.7a23.36,23.36,0,0,0-3.73-1.18c-.59-.09-1.3.53-2,.83.39.35.72.91,1.17,1a40.86,40.86,0,0,0,4.29.73,4.16,4.16,0,0,0,1.11-.21,2.6,2.6,0,0,0-.89-1.19m141.65,33.86c-.12,1.18-.3,2.36-.31,3.54a1.15,1.15,0,0,0,.78.83,1.22,1.22,0,0,0,.91-.71,11.53,11.53,0,0,0,.54-2.41,15,15,0,0,0,0-1.78,11.43,11.43,0,0,0-2,.53m-60.63-20.57c-.25-.25-.48-.51-.75-.74-1.17-1-2.06,0-2.62.67s0,1.57.87,2c1.06.58,2.43-.29,2.5-2m-3.19,81.56.27.88c.38-.19.94-.29,1.11-.6a24.86,24.86,0,0,0,1.43-3.1,3.11,3.11,0,0,0,0-1.1c-.41.06-1,0-1.17.2a23,23,0,0,0-1.65,3.72m45.91-78.54a7.25,7.25,0,0,0-1.4,0c-.16,0-.39.61-.34.66,1,.95,2,1.88,3.11,2.73.1.08.85-.31.9-.57.33-1.55-1.1-2-2.27-2.85M222.6,216.9l.52.87c.24-.18.71-.39.69-.54-.18-1.44-.4-2.87-.71-4.29-.06-.26-.56-.43-.86-.64-.18.34-.53.7-.49,1a21,21,0,0,0,.85,3.59M182,221.69c.09.15.23.44.25.44,1.23-.5,2.46-1,3.66-1.55a.85.85,0,0,0,.16-.81c-.2-.31-.6-.73-.88-.7-1.56.16-3,.59-3.19,2.62m30.85,105.66.05-.53c-.23.15-.66.3-.66.47,0,1.7,0,3.41,0,5.12,0,.11.63.25,1,.26.1,0,.3-.4.31-.62,0-1.06.06-2.12,0-3.18a4.1,4.1,0,0,0-.69-1.52m5-157.79a5.45,5.45,0,0,0,1.07-.76A.93.93,0,0,0,219,168c-.08-.19-.53-.42-.68-.34a20.79,20.79,0,0,0-3.07,1.78c-.31.24-.21,1-.3,1.54a3.62,3.62,0,0,0,1.16-.19,10.47,10.47,0,0,0,1.68-1.22M20.67,374.15c.8.06,1.6.15,2.39.16a2.34,2.34,0,0,0,.81-.34c-.23-.35-.41-1-.69-1a33.87,33.87,0,0,0-3.9-.38,1.15,1.15,0,0,0-.7.38c.11.36.26.86.53,1s.92,0,1.56.22m237.39-51.94c-.18-.29-.3-.71-.57-.84a2.26,2.26,0,0,0-1.26-.19c-.18,0-.5.55-.45.63.74,1.1,1.53,2.18,2.35,3.21.08.1.52-.08.79-.13a24.64,24.64,0,0,0-.86-2.68m6.74-18.8,1.43-.36a9.13,9.13,0,0,0-.81-1.12,8.53,8.53,0,0,0-1.56-1.32c-.28-.18-1-.23-1.08-.06s-.43,1-.25,1.23a7.34,7.34,0,0,0,2.27,1.63m-108,213.28,1.67.46c-.11-.53-.19-1.07-.33-1.59-.07-.25-.17-.61-.37-.7-.85-.42-1.75-.76-2.63-1.12l1.09,2.06a5.3,5.3,0,0,0,.57.89m99.28-229.05c-.05-.88-.06-1.76-.18-2.62,0-.13-.75-.33-.78-.28-.42.75-.79,1.53-1.17,2.31a4.89,4.89,0,0,0,2.13.59M232.53,298.1c.89-.45,1.32-1.05.54-1.92a7.53,7.53,0,0,0-1.17-.92l-1.32,1.87a6.84,6.84,0,0,0,1.95,1M70.67,328.77l-.22,1.2c.48-.1,1-.18,1.44-.3a2.5,2.5,0,0,0,1-.39,12.82,12.82,0,0,0,1.27-1.57,6.92,6.92,0,0,0-2.16-.35c-.5.07-.92.68-1.38,1.41m159-58.68-.84-.22a4.1,4.1,0,0,0,.55,3.79,1.34,1.34,0,0,0,.91.29c.08,0,.29-.45.25-.66a20.35,20.35,0,0,0-.87-3.2m-9.92,69.85a5.53,5.53,0,0,0-.5,1.35,1,1,0,0,0,.53.76c.35.16,1,.31,1.17.13a5.72,5.72,0,0,0,1.08-1.63,3.11,3.11,0,0,0,.18-1,3.36,3.36,0,0,0-1.19-.15c-.4.1-.73.46-1.27.53M185,425c-.84.13-1.68.25-2.52.42a1.73,1.73,0,0,0,0,.55c1.36.17,2.72.31,4.08.44a.63.63,0,0,0,.12-.33A6,6,0,0,0,185,425m44.32-130.48c1.14-.74.32-1.54-.22-1.82a2.34,2.34,0,0,0-2.05.09c-.77.53-.47,1.35.33,1.7a3.58,3.58,0,0,0,1.94,0m-134,20.21c-1.72.11-2,.51-1.24,2.06.23.49.45,1,.72,1.45a5.3,5.3,0,0,0,.58.69,5.9,5.9,0,0,0,.11-.83,19.9,19.9,0,0,0-.17-3.37m198.38-74.28a10.81,10.81,0,0,0,.91,1.2c0,.06.62-.16.66-.32a21.52,21.52,0,0,0,.53-2.75c0-.12-.47-.43-.48-.41-.6.59-1.92.6-1.62,2.28m-63.46,97.86a9.4,9.4,0,0,0-.86,1.18c.94.94,2.09.76,3.22.41.14,0,.24-.19.35-.29-.73-.49-1.45-1-2.19-1.47-.08-.05-.23,0-.52.17M299,230.91a12.82,12.82,0,0,0,.46,2c.1.24.6.36.93.45a2.31,2.31,0,0,0,.74,0l-.39-2.87a7.83,7.83,0,0,0-1.74.4M182.54,215.48c-.16,0-.46.08-.46.13,0,.4,0,.81,0,1.22,1-.2,1.92-.36,2.86-.64.13,0,.1-.63.15-1a14.73,14.73,0,0,0-2.58.25m6.56-51.94c-.13-.12-.31-.35-.36-.33-1.41.73-1.24,1.87-.79,3.08.07.21.17.41.26.62.29-.15.82-.26.85-.45a11.28,11.28,0,0,0,0-2.92m52.65,200.51a1.37,1.37,0,0,0-.35,0l-1.25.32c.32.48.56,1.26,1,1.38a5.68,5.68,0,0,0,2.09-.22,2.9,2.9,0,0,0-.3-1c-.18-.24-.54-.35-1.18-.51m-21.1-224.27c-.15.21-.47.52-.42.6a9.51,9.51,0,0,0,1.23,1.59,1.53,1.53,0,0,0,1,.43.92.92,0,0,0,.62-.67,1.46,1.46,0,0,0-.46-1,5,5,0,0,0-2-.95m-56.37,348.9c.16.19.35.57.48.55,1.53-.28.76-1.52.9-2.36,0-.13-.46-.51-.61-.47a1.47,1.47,0,0,0-1.07,2s.08.08.3.3m103-87.4a5.17,5.17,0,0,0-1.56.48c-.13.09.18.84.29,1.29a8.62,8.62,0,0,0,2.12-1c.46-.38.32-.92-.85-.77m-53.9-231.54a8.32,8.32,0,0,1-.95-.25c-.72-.29-1.17-.15-1,.71a1.54,1.54,0,0,0,.66,1.05,4.15,4.15,0,0,0,1.53,0,5.3,5.3,0,0,0-.27-1.5M16.77,372c0-.52.1-1.27-.18-1.51a5.78,5.78,0,0,0-1.87-.68c0,.55-.15,1.29.14,1.6a2.92,2.92,0,0,0,1.91.59m224.62-86.33c.32.35.82,1.05.91,1a8.32,8.32,0,0,0,1.4-1.14c-.32-.31-.69-.91-.94-.87a2.32,2.32,0,0,0-1.37,1m131.9-124.46-1.24,1a4.36,4.36,0,0,0,1.16.72,3.91,3.91,0,0,0,1.33-.16,5.06,5.06,0,0,0-1.25-1.58M169.77,287.1a7.46,7.46,0,0,0-1.81-.66c-.41,0-.88.36-1.3.61-.07,0,0,.31,0,.48a17.15,17.15,0,0,0,3.12-.43m47.34-2.65a1.36,1.36,0,0,0-.25-.11s-.11.11-.1.12c.19.32.34.82.6.89a1.84,1.84,0,0,0,1.39-.15c.28-.18.29-.77.42-1.18-.72-.06-1.56-.55-2.06.43m85.63,21.8a2.4,2.4,0,0,0,.19.82,7.64,7.64,0,0,0,.75.95l1.36-1.28a4.46,4.46,0,0,0-1.06-.81c-.23-.08-.59.2-1.24.32M241.57,331.6c.39,1.21,1.19.8,1.75.29.23-.2,0-.91,0-1.38a5.71,5.71,0,0,0-1.74,1.09m14.72-11.52.24-.25c.34-.38,1-.8.92-1.13s-.68-.74-1.05-1.1c-.22.35-.57.69-.61,1.06a2.92,2.92,0,0,0,.5,1.42m-48.4-5.5c1.15-1.31-1-.79-.86-1.56l-1.25.17c.17.41.24.95.54,1.19a2.33,2.33,0,0,0,1.57.2M239.09,83.4c.24.19.46.39.71.55s.66.4,1,.59c.12-.51.5-1.15.32-1.53-.6-1.27-1.35-.52-2,.39m.18,199.8-.64-2.05c-.29.24-.72.43-.85.74-.47,1.1.5,1.09,1.49,1.31M350.78,299a6.57,6.57,0,0,0,.8.86c.05,0,.61-.36.58-.47a10.87,10.87,0,0,0-.57-1.63,3.77,3.77,0,0,0-.81,1.24m-97,25.71.21-1.92a4.09,4.09,0,0,0-1.19.86c-.1.15.4.69,1,1.06m-51.23-16.13-.25-.11a2.81,2.81,0,0,0-.1.31c-.08.33-.14.67-.21,1l1.18-.06a8.12,8.12,0,0,0-.62-1.15m149.1-5.85v-1.42c-.18.14-.49.27-.51.43a1.1,1.1,0,0,0,.51,1m56.2-3.37a10.11,10.11,0,0,0,.58.87c0,.05.29-.08.44-.12A2.22,2.22,0,0,0,407.87,299.34Z" transform="translate(-11.41 -8.36)"/></g></svg>