<?xml version="1.0" standalone="no"?>
<!DOCTYPE svg PUBLIC "-//W3C//DTD SVG 20010904//EN"
 "http://www.w3.org/TR/2001/REC-SVG-20010904/DTD/svg10.dtd">
<svg version="1.0" xmlns="http://www.w3.org/2000/svg"
 width="700.000000pt" height="700.000000pt" viewBox="0 0 700.000000 700.000000"
 preserveAspectRatio="xMidYMid meet">
<metadata>
Created by potrace 1.14, written by Peter Selinger 2001-2017
</metadata>
<g transform="translate(0.000000,700.000000) scale(0.100000,-0.100000)"
fill="#000000" stroke="none">
<path d="M3280 6994 c-19 -2 -84 -9 -145 -14 -578 -56 -1180 -283 -1660 -625
-237 -169 -531 -446 -709 -670 -416 -521 -673 -1147 -748 -1820 -17 -154 -17
-585 0 -730 69 -588 254 -1099 567 -1570 126 -189 242 -332 410 -504 580 -595
1295 -943 2140 -1043 145 -17 576 -17 730 0 822 91 1556 447 2131 1034 203
206 348 390 487 618 274 449 432 915 499 1465 16 135 16 591 0 730 -100 846
-447 1557 -1043 2141 -555 542 -1249 874 -2029 970 -117 15 -553 27 -630 18z
m1265 -328 c0 -13 -24 -32 -80 -63 -44 -24 -91 -55 -105 -68 -14 -13 -61 -46
-105 -73 -44 -26 -151 -104 -238 -173 -87 -68 -189 -147 -225 -176 -47 -37
-67 -59 -67 -75 -2 -58 -55 -233 -113 -368 -17 -38 -177 -477 -200 -545 -10
-33 -25 -74 -33 -92 -12 -29 -11 -37 9 -76 15 -30 22 -62 22 -100 0 -56 8
-104 36 -202 14 -52 77 -337 94 -427 56 -300 73 -407 67 -430 -3 -11 -3 -26 0
-34 4 -11 8 -11 27 1 19 13 25 13 44 -1 14 -10 22 -26 22 -45 0 -32 10 -35 58
-18 33 11 72 -1 72 -24 0 -7 7 -24 15 -40 8 -16 12 -43 9 -64 -6 -51 8 -34 44
52 86 207 157 367 186 420 46 84 137 219 193 288 46 55 138 127 164 127 7 0
87 73 178 163 91 90 182 176 201 191 19 15 64 56 100 90 90 86 155 136 176
136 10 0 63 22 118 49 183 89 313 141 498 202 277 91 318 100 318 65 0 -15
-78 -52 -145 -68 -27 -6 -61 -17 -75 -25 -14 -7 -37 -13 -51 -13 -15 0 -53
-12 -85 -26 -33 -14 -81 -35 -109 -46 -222 -91 -321 -147 -400 -224 -28 -27
-76 -69 -108 -93 -32 -24 -61 -49 -65 -56 -7 -13 -148 -140 -318 -288 -49 -42
-127 -118 -172 -167 -46 -50 -97 -97 -113 -105 -16 -9 -29 -20 -29 -26 0 -5
-15 -34 -34 -63 -43 -67 -108 -203 -179 -373 -31 -72 -67 -149 -81 -172 -14
-22 -26 -45 -26 -51 0 -6 -22 -35 -48 -63 -43 -46 -119 -173 -109 -183 2 -2
26 7 53 21 27 13 81 32 119 41 39 9 111 30 162 45 53 17 114 29 145 29 48 0
129 12 274 42 78 16 836 -2 856 -21 4 -3 3 -13 -2 -21 -8 -13 -52 -15 -292
-15 -265 0 -287 -1 -343 -22 -34 -12 -110 -26 -175 -33 -209 -20 -263 -33
-479 -109 -62 -23 -117 -39 -121 -36 -4 2 -32 -9 -61 -25 -30 -16 -81 -36
-113 -44 -33 -9 -66 -22 -75 -29 -25 -22 -74 -35 -96 -26 -11 4 -33 8 -50 8
l-29 1 32 -29 c31 -29 32 -33 32 -105 0 -41 -7 -118 -16 -170 l-16 -96 37 -41
c20 -23 43 -55 50 -73 7 -17 25 -42 40 -56 38 -36 161 -182 167 -200 3 -8 39
-33 79 -54 167 -89 195 -115 170 -155 -7 -10 -41 3 -161 63 -84 42 -161 76
-170 76 -20 0 -65 47 -116 120 -50 71 -87 119 -148 189 -69 80 -80 110 -72
201 4 41 15 98 25 127 l18 53 -40 43 c-22 23 -37 33 -32 22 29 -75 34 -108 25
-157 -14 -74 -35 -139 -60 -189 -32 -64 -220 -372 -235 -384 -6 -5 -28 -35
-48 -65 -20 -30 -58 -80 -83 -110 -25 -30 -53 -71 -62 -90 -10 -19 -27 -51
-38 -70 -12 -19 -25 -51 -28 -70 -4 -19 -15 -55 -26 -80 -10 -25 -28 -79 -40
-120 -12 -41 -26 -86 -31 -100 -5 -14 -29 -113 -54 -220 -50 -214 -76 -301
-103 -342 -17 -25 -17 -38 -6 -170 6 -79 19 -172 27 -208 23 -99 30 -198 18
-269 -20 -121 -54 -107 -58 24 -1 47 -8 95 -14 107 -24 45 -49 165 -59 283 -6
66 -15 153 -20 193 -16 116 -12 185 11 239 53 123 150 431 168 536 10 63 50
170 85 233 14 26 26 57 26 70 0 14 37 72 93 146 121 159 266 385 333 519 l54
106 -26 77 c-15 43 -30 74 -34 69 -4 -4 -17 -42 -29 -83 -45 -151 -83 -232
-160 -333 -83 -112 -168 -186 -268 -237 -62 -32 -75 -35 -153 -35 -104 1 -159
25 -236 107 -110 117 -153 274 -124 452 12 76 98 254 145 300 19 20 35 38 35
42 0 10 -387 -4 -424 -15 -69 -21 -130 -29 -151 -19 -19 8 -38 -2 -138 -74
-64 -46 -179 -138 -255 -205 -150 -131 -277 -227 -330 -250 -39 -16 -48 -34
-34 -71 5 -15 17 -54 27 -87 9 -33 23 -76 30 -95 7 -19 34 -100 60 -180 26
-80 59 -172 75 -205 47 -99 68 -157 79 -219 15 -83 14 -136 -2 -136 -24 0 -44
33 -66 105 -12 38 -33 90 -47 115 -28 48 -110 228 -124 270 -13 39 -106 307
-135 388 -14 40 -32 84 -41 97 -8 13 -14 38 -12 57 3 29 13 39 94 93 50 33
111 76 135 96 24 19 98 74 164 122 66 47 152 114 190 148 79 71 209 159 234
159 9 0 22 5 28 11 29 29 187 42 538 44 208 2 372 7 404 14 87 18 183 13 284
-14 18 -5 27 -3 27 5 0 18 -240 128 -428 196 -52 19 -107 43 -122 54 -15 11
-42 20 -58 20 -17 0 -64 16 -105 35 -41 19 -88 35 -105 35 -37 0 -84 17 -94
33 -8 14 0 56 15 75 14 18 55 15 133 -11 38 -13 96 -29 129 -36 33 -7 73 -19
88 -27 16 -8 46 -14 67 -14 23 0 66 -14 111 -36 41 -20 83 -40 94 -44 116 -46
244 -105 281 -130 25 -16 48 -30 52 -30 4 0 29 20 56 43 l49 44 -21 21 c-12
12 -22 34 -22 48 0 25 -28 81 -80 159 -53 79 -184 312 -223 395 -46 100 -61
172 -61 296 0 66 4 97 16 115 12 19 17 62 21 179 7 202 24 276 82 360 62 90
238 280 310 336 69 53 66 48 98 139 14 39 50 138 80 221 30 83 57 168 61 188
13 69 119 163 401 355 83 56 184 125 225 155 41 29 89 57 105 63 17 6 62 29
100 52 75 43 120 50 120 17z"/>
<path d="M3585 5818 c-28 -75 -54 -162 -50 -166 7 -8 9 -5 43 91 17 48 27 87
21 87 -5 0 -12 -6 -14 -12z"/>
<path d="M3284 5307 c-150 -172 -169 -201 -182 -287 -22 -144 -24 -176 -28
-344 -2 -93 -9 -191 -15 -218 l-13 -48 102 -202 c56 -112 126 -245 156 -295
31 -51 68 -123 83 -160 16 -38 36 -69 44 -71 14 -3 16 10 13 90 -1 51 -12 136
-23 188 -12 52 -30 149 -42 215 -11 66 -35 188 -54 270 -18 83 -39 200 -45
260 -7 61 -16 120 -21 133 -5 13 -9 81 -9 151 0 147 17 218 60 255 25 20 79
150 68 162 -3 2 -45 -42 -94 -99z"/>
<path d="M3340 4905 c-7 -8 -8 -15 -2 -15 5 0 15 7 22 15 7 8 8 15 2 15 -5 0
-15 -7 -22 -15z"/>
<path d="M3016 4888 c-9 -42 -13 -179 -6 -183 4 -2 11 41 16 96 5 55 6 103 2
105 -4 3 -10 -5 -12 -18z"/>
<path d="M4375 4370 c-21 -22 -37 -42 -34 -44 4 -5 89 71 89 79 0 14 -20 1
-55 -35z"/>
<path d="M2960 4390 c0 -5 4 -10 9 -10 6 0 13 5 16 10 3 6 -1 10 -9 10 -9 0
-16 -4 -16 -10z"/>
<path d="M2970 4335 c-16 -19 0 -19 26 0 16 12 16 14 3 15 -9 0 -22 -7 -29
-15z"/>
<path d="M3420 4338 c0 -30 32 -173 41 -182 13 -14 12 1 -7 96 -15 77 -34 124
-34 86z"/>
<path d="M4260 4211 c0 -6 5 -13 10 -16 6 -3 10 1 10 9 0 9 -4 16 -10 16 -5 0
-10 -4 -10 -9z"/>
<path d="M4142 4005 c-44 -90 -48 -100 -33 -90 13 7 91 149 91 164 0 28 -19 4
-58 -74z"/>
<path d="M3490 3610 c0 -15 5 -20 18 -18 9 2 17 10 17 18 0 8 -8 16 -17 18
-13 2 -18 -3 -18 -18z"/>
<path d="M3396 3573 c-11 -11 -6 -23 9 -23 8 0 15 4 15 9 0 13 -16 22 -24 14z"/>
<path d="M3570 3555 c-10 -12 -9 -16 5 -21 19 -8 40 9 31 25 -10 15 -21 14
-36 -4z"/>
<path d="M3506 3502 c-3 -6 -1 -14 5 -17 15 -10 25 3 12 16 -7 7 -13 7 -17 1z"/>
<path d="M3860 3442 c0 -5 7 -15 15 -22 8 -7 15 -8 15 -2 0 5 -7 15 -15 22 -8
7 -15 8 -15 2z"/>
<path d="M3557 3433 c-4 -3 -7 -12 -7 -20 0 -15 26 -18 34 -4 7 11 -18 33 -27
24z"/>
<path d="M3327 3392 c-32 -35 -16 -82 29 -82 33 0 56 27 52 64 -3 26 -7 31
-34 34 -20 2 -36 -3 -47 -16z"/>
<path d="M4240 3368 c-19 -5 -42 -16 -50 -24 -13 -14 -12 -15 15 -8 50 12 75
23 75 34 0 5 -1 10 -2 9 -2 0 -19 -5 -38 -11z"/>
<path d="M4097 3336 c-4 -10 -5 -21 -2 -24 9 -9 17 6 13 25 -3 17 -4 17 -11
-1z"/>
<path d="M1812 3199 c-23 -17 -40 -35 -36 -40 6 -10 94 49 94 63 0 15 -15 9
-58 -23z"/>
<path d="M3790 3199 c7 -11 14 -19 16 -16 7 7 -7 37 -17 37 -6 0 -5 -9 1 -21z"/>
<path d="M2595 3047 c-40 -23 -49 -40 -60 -108 -4 -27 -14 -42 -43 -60 -53
-35 -66 -68 -66 -179 -1 -89 1 -99 32 -155 18 -33 45 -74 60 -92 l27 -31 -1
110 c-1 108 0 112 28 143 25 29 28 40 28 100 l0 68 50 46 c64 60 79 99 53 143
-24 41 -55 46 -108 15z"/>
<path d="M3498 3023 c7 -3 16 -2 19 1 4 3 -2 6 -13 5 -11 0 -14 -3 -6 -6z"/>
<path d="M3380 3005 c-7 -8 -8 -15 -2 -15 5 0 15 7 22 15 7 8 8 15 2 15 -5 0
-15 -7 -22 -15z"/>
<path d="M3596 2884 c-3 -9 -6 -32 -6 -52 1 -45 14 -26 23 31 6 37 -5 51 -17
21z"/>
<path d="M3610 2740 c0 -5 7 -10 16 -10 8 0 12 5 9 10 -3 6 -10 10 -16 10 -5
0 -9 -4 -9 -10z"/>
<path d="M1160 2646 c0 -2 9 -6 20 -9 11 -3 20 -1 20 4 0 5 -9 9 -20 9 -11 0
-20 -2 -20 -4z"/>
<path d="M2975 2060 c3 -5 16 -10 28 -10 18 0 19 2 7 10 -20 13 -43 13 -35 0z"/>
<path d="M2801 1502 c-22 -74 -27 -109 -12 -82 13 22 43 141 37 147 -2 3 -14
-26 -25 -65z"/>
<path d="M2672 1069 c2 -7 10 -15 17 -17 8 -3 12 1 9 9 -2 7 -10 15 -17 17 -8
3 -12 -1 -9 -9z"/>
</g>
</svg>
