<svg id="Layer_1" data-name="Layer 1" xmlns="http://www.w3.org/2000/svg" viewBox="0 0 32.58 31.77"><path class="cls-1" d="M29.41,9.93a16.29,16.29,0,0,0-5.15,31.75c.82.15,1.11-.36,1.11-.79s0-1.41,0-2.77c-4.53,1-5.48-2.18-5.48-2.18a4.41,4.41,0,0,0-1.81-2.39c-1.48-1,.11-1,.11-1a3.43,3.43,0,0,1,2.49,1.68A3.48,3.48,0,0,0,25.4,35.6a3.46,3.46,0,0,1,1-2.18C22.82,33,19,31.61,19,25.37A6.26,6.26,0,0,1,20.7,21a5.82,5.82,0,0,1,.16-4.31s1.36-.44,4.47,1.67a15.41,15.41,0,0,1,8.16,0C36.6,16.25,38,16.69,38,16.69A5.88,5.88,0,0,1,38.13,21a6.3,6.3,0,0,1,1.67,4.37c0,6.26-3.81,7.63-7.44,8a3.85,3.85,0,0,1,1.11,3c0,2.18,0,3.94,0,4.47s.29.94,1.12.79A16.3,16.3,0,0,0,29.41,9.93Z" transform="translate(-13.12 -9.93)"/></svg>