<svg id="Layer_1" data-name="Layer 1" xmlns="http://www.w3.org/2000/svg" viewBox="0 0 128.24 128.36">
    
    <g id="knitTB.tif">
        <path class="cls-1" d="M-42.55,70.07H-155.14c-.07-.24-.29-.22-.47-.28-4.82-1.46-7.23-4.71-7.23-9.71q0-54.37,0-108.74a9.32,9.32,0,0,1,9.57-9.63H-44a9.32,9.32,0,0,1,9.45,9.5V60.56a9.33,9.33,0,0,1-7.23,9.23C-42.07,69.85-42.41,69.71-42.55,70.07Zm-52-72c0-2.39,0-4.78,0-7.16,0-.86-.27-1.07-1.09-1.06-5.39,0-10.78,0-16.16,0-1,0-1.17.33-1.17,1.23q0,29.39,0,58.79c0,.94.25,1.22,1.2,1.21q8.31-.06,16.64,0c1,0,1.34-.24,1.33-1.31,0-10.18,0-20.36,0-30.54a24.87,24.87,0,0,1,.74-6.14c.87-3.42,2.64-6.12,6.15-7.35a14.38,14.38,0,0,1,4.22-.63c4.88-.19,8,2.1,9.29,6.82a28,28,0,0,1,.8,7.45q.06,15.21,0,30.41c0,1,.22,1.3,1.24,1.29,5.51,0,11-.06,16.53,0,1.07,0,1.31-.3,1.3-1.34,0-11.65,0-23.31,0-35A45.69,45.69,0,0,0-55,3.16c-1.77-6.71-5.54-11.63-12.44-13.7a30.83,30.83,0,0,0-7.64-1.14,22,22,0,0,0-8.79,1.15A21.62,21.62,0,0,0-94.56-2Zm-49.32,22.32c0,9.85,0,19.71,0,29.56,0,.91.25,1.15,1.14,1.14q8.43,0,16.87,0c.85,0,1.17-.18,1.17-1.12q0-29.5,0-59c0-.92-.27-1.12-1.15-1.12-5.58,0-11.17.06-16.75,0-1.13,0-1.28.36-1.28,1.35C-143.86.88-143.88,10.61-143.88,20.35Zm9.64-38.91a11,11,0,0,0,11-11,11.06,11.06,0,0,0-11-11,11,11,0,0,0-11.06,11A10.94,10.94,0,0,0-134.24-18.56Z" transform="translate(162.84 58.29)" />
    </g>
</svg>